<?xml version="1.0" encoding="iso-8859-1"?>
<!-- Generator: Adobe Illustrator 16.0.0, SVG Export Plug-In . SVG Version: 6.00 Build 0)  -->
<!DOCTYPE svg PUBLIC "-//W3C//DTD SVG 1.1//EN" "http://www.w3.org/Graphics/SVG/1.1/DTD/svg11.dtd">
<svg version="1.1" id="Layer_1" xmlns="http://www.w3.org/2000/svg" xmlns:xlink="http://www.w3.org/1999/xlink" x="0px" y="0px"
	 width="48px" height="48px" viewBox="0 0 48 48" style="enable-background:new 0 0 48 48;" xml:space="preserve">
<linearGradient id="SVGID_1_" gradientUnits="userSpaceOnUse" x1="23.7603" y1="47.874" x2="23.7603" y2="-0.2788">
	<stop  offset="0" style="stop-color:#BA141A"/>
	<stop  offset="1" style="stop-color:#ED1C24"/>
</linearGradient>
<path style="fill:url(#SVGID_1_);" d="M35,22.396c0.1-0.139,0.201-0.278,0.295-0.419c0.035-0.05,0.07-0.101,0.102-0.152
	c0.09-0.13,0.168-0.263,0.256-0.396c0.025-0.04,0.049-0.079,0.074-0.12c0.102-0.17,0.203-0.343,0.295-0.517
	c0.027-0.044,0.045-0.088,0.072-0.135c0.072-0.135,0.146-0.274,0.213-0.411c0.029-0.057,0.053-0.113,0.084-0.17
	c0.018-0.039,0.037-0.077,0.055-0.115c0.027-0.059,0.053-0.12,0.08-0.182c0.055-0.126,0.111-0.255,0.164-0.381
	c0.035-0.095,0.076-0.191,0.111-0.285c0.047-0.127,0.094-0.255,0.143-0.383c0.031-0.098,0.068-0.198,0.098-0.296
	c0.041-0.129,0.082-0.258,0.119-0.389c0.033-0.102,0.061-0.203,0.09-0.304c0.033-0.132,0.066-0.264,0.098-0.4
	c0.027-0.1,0.049-0.203,0.074-0.305c0.027-0.138,0.051-0.276,0.08-0.414c0.018-0.1,0.033-0.202,0.053-0.305
	c0.023-0.145,0.039-0.29,0.061-0.438c0.012-0.095,0.027-0.193,0.035-0.292c0.018-0.162,0.029-0.326,0.039-0.493
	c0.006-0.082,0.014-0.163,0.02-0.246c0.014-0.25,0.021-0.5,0.021-0.751c0-7.717-6.256-13.972-13.971-13.972
	c-7.717,0-13.97,6.253-13.97,13.969c0,0.252,0.008,0.503,0.021,0.751c0.004,0.083,0.013,0.167,0.02,0.249
	c0.01,0.165,0.022,0.33,0.041,0.493c0.01,0.097,0.025,0.193,0.037,0.29c0.019,0.147,0.038,0.293,0.06,0.438
	c0.017,0.103,0.036,0.204,0.055,0.305c0.025,0.139,0.05,0.277,0.081,0.412c0.022,0.105,0.047,0.207,0.071,0.308
	c0.032,0.132,0.065,0.267,0.101,0.399c0.029,0.103,0.057,0.202,0.086,0.304c0.039,0.13,0.078,0.259,0.122,0.389
	c0.032,0.1,0.064,0.198,0.101,0.296c0.045,0.128,0.093,0.255,0.141,0.383c0.036,0.095,0.074,0.189,0.112,0.283
	c0.052,0.129,0.107,0.255,0.165,0.381c0.027,0.062,0.052,0.123,0.08,0.185c0.018,0.037,0.038,0.076,0.055,0.113
	c0.027,0.059,0.054,0.114,0.082,0.17c0.067,0.138,0.139,0.277,0.212,0.412c0.024,0.044,0.046,0.089,0.07,0.132
	c0.096,0.176,0.195,0.348,0.297,0.518c0.023,0.04,0.049,0.079,0.075,0.12c0.083,0.133,0.167,0.266,0.253,0.396
	c0.035,0.051,0.067,0.103,0.102,0.151c0.096,0.144,0.196,0.283,0.298,0.419c0.018,0.026,0.034,0.05,0.054,0.073
	c0.04,0.056,0.085,0.11,0.126,0.165h-0.002c8.814,12.019,10.461,25.243,10.461,25.243h0.599h0.598c0,0,1.646-13.225,10.462-25.243
	h-0.004c0.043-0.056,0.088-0.108,0.129-0.165C34.965,22.444,34.984,22.421,35,22.396z"/>
<linearGradient id="SVGID_2_" gradientUnits="userSpaceOnUse" x1="23.7622" y1="17.939" x2="23.7622" y2="9.1572">
	<stop  offset="0" style="stop-color:#FFFFFF"/>
	<stop  offset="1" style="stop-color:#E2E3E4"/>
</linearGradient>
<circle style="fill:url(#SVGID_2_);" cx="23.762" cy="13.548" r="4.391"/>
</svg>
