<?xml version="1.0" encoding="utf-8"?>
<!-- Generator: Adobe Illustrator 16.0.0, SVG Export Plug-In . SVG Version: 6.00 Build 0)  -->
<!DOCTYPE svg PUBLIC "-//W3C//DTD SVG 1.1//EN" "http://www.w3.org/Graphics/SVG/1.1/DTD/svg11.dtd">
<svg version="1.1" id="Layer_1" xmlns="http://www.w3.org/2000/svg" xmlns:xlink="http://www.w3.org/1999/xlink" x="0px" y="0px"
	 width="32px" height="32px" viewBox="0 0 32 32" enable-background="new 0 0 32 32" xml:space="preserve">
<path fill="#FFB208" d="M23.482,14.931c0.067-0.092,0.134-0.185,0.197-0.279c0.023-0.033,0.047-0.067,0.068-0.101
	c0.059-0.087,0.113-0.175,0.17-0.264c0.016-0.026,0.033-0.053,0.05-0.08c0.067-0.113,0.134-0.228,0.196-0.344
	c0.018-0.029,0.031-0.059,0.048-0.089c0.049-0.09,0.097-0.183,0.142-0.274c0.019-0.038,0.035-0.075,0.056-0.113
	c0.012-0.025,0.024-0.051,0.036-0.076c0.019-0.04,0.035-0.081,0.053-0.122c0.037-0.083,0.074-0.169,0.109-0.254
	c0.025-0.063,0.051-0.126,0.074-0.189c0.032-0.085,0.063-0.17,0.096-0.255c0.021-0.065,0.045-0.131,0.065-0.197
	c0.027-0.086,0.054-0.172,0.08-0.259c0.021-0.067,0.039-0.134,0.058-0.202c0.023-0.088,0.045-0.176,0.066-0.266
	c0.018-0.067,0.032-0.135,0.049-0.204c0.019-0.091,0.034-0.183,0.053-0.275c0.013-0.067,0.023-0.135,0.035-0.203
	c0.017-0.097,0.027-0.194,0.041-0.292c0.008-0.064,0.018-0.129,0.024-0.194c0.011-0.108,0.019-0.218,0.026-0.328
	c0.004-0.055,0.009-0.109,0.013-0.165c0.009-0.166,0.014-0.333,0.014-0.5c0-5.138-4.165-9.303-9.303-9.303
	c-5.138,0-9.302,4.164-9.302,9.302c0,0.167,0.005,0.334,0.014,0.5c0.003,0.055,0.009,0.11,0.013,0.165
	c0.007,0.11,0.015,0.22,0.027,0.328c0.007,0.065,0.017,0.13,0.025,0.194c0.012,0.098,0.025,0.195,0.04,0.292
	c0.011,0.068,0.024,0.135,0.036,0.203c0.017,0.092,0.034,0.184,0.054,0.275c0.015,0.069,0.031,0.137,0.047,0.204
	c0.021,0.089,0.043,0.178,0.067,0.266c0.019,0.068,0.038,0.135,0.057,0.202c0.026,0.087,0.052,0.173,0.081,0.259
	c0.021,0.066,0.043,0.132,0.067,0.197c0.03,0.085,0.062,0.17,0.094,0.255c0.024,0.063,0.049,0.126,0.074,0.189
	c0.035,0.085,0.072,0.17,0.11,0.254c0.018,0.041,0.034,0.082,0.053,0.122c0.012,0.025,0.025,0.051,0.037,0.076
	c0.018,0.039,0.036,0.076,0.054,0.113c0.045,0.092,0.093,0.184,0.141,0.274c0.016,0.03,0.031,0.06,0.047,0.089
	c0.064,0.116,0.13,0.231,0.198,0.344c0.016,0.026,0.033,0.053,0.05,0.08c0.055,0.089,0.111,0.177,0.169,0.264
	c0.023,0.034,0.045,0.068,0.068,0.101c0.064,0.095,0.13,0.188,0.198,0.279c0.012,0.017,0.023,0.033,0.036,0.049
	c0.027,0.037,0.057,0.073,0.084,0.109H8.636c5.869,8.003,6.966,16.809,6.966,16.809H16h0.398c0,0,1.096-8.806,6.966-16.809h-0.003
	c0.029-0.037,0.059-0.073,0.087-0.109C23.46,14.964,23.473,14.948,23.482,14.931z"/>
<circle fill="#1E1E1E" cx="16" cy="9.04" r="2.924"/>
</svg>
